<?xml version="1.0" standalone="no"?><!DOCTYPE svg PUBLIC "-//W3C//DTD SVG 1.1//EN"
        "http://www.w3.org/Graphics/SVG/1.1/DTD/svg11.dtd">
<svg t="1712765762501" class="icon" viewBox="0 0 1024 1024" version="1.1" xmlns="http://www.w3.org/2000/svg"
     p-id="50806" xmlns:xlink="http://www.w3.org/1999/xlink" width="200" height="200">
    <path d="M0 0h1024v1024H0V0z" fill="#ffffff" p-id="50807"
          data-spm-anchor-id="a313x.search_index.0.i1.691d3a81hRbAWH" class="selected"></path>
    <path d="M861.866667 217.6l-25.6 21.333333c-8.533333 8.533333-8.533333 21.333333 0 29.866667 42.666667 46.933333 59.733333 123.733333 55.466666 183.466667-4.266667 55.466667-34.133333 102.4-89.6 162.133333l-12.8 12.8c-29.866667 29.866667-55.466667 64-85.333333 102.4l-17.066667 21.333333-4.266666 8.533334v4.266666c-8.533333 21.333333-21.333333 59.733333-21.333334 123.733334v72.533333c0 12.8 8.533333 21.333333 21.333334 21.333333h34.133333c12.8 0 21.333333-8.533333 21.333333-21.333333v-81.066667l4.266667-25.6c4.266667-29.866667 8.533333-46.933333 12.8-55.466666 25.6-34.133333 46.933333-59.733333 72.533333-89.6l17.066667-21.333334c72.533333-81.066667 110.933333-140.8 119.466667-221.866666 8.533333-81.066667-17.066667-179.2-72.533334-247.466667-8.533333-4.266667-21.333333-8.533333-29.866666 0z m-652.8-42.666667c-29.866667 34.133333-51.2 76.8-68.266667 119.466667l-4.266667 12.8c0 8.533333-4.266667 17.066667-4.266666 25.6l-85.333334 260.266667c-4.266667 17.066667-4.266667 34.133333 4.266667 51.2l4.266667 4.266666c8.533333 12.8 21.333333 21.333333 34.133333 25.6l51.2 12.8v110.933334c4.266667 59.733333 55.466667 106.666667 115.2 106.666666h64v55.466667c0 12.8 8.533333 21.333333 21.333333 21.333333h34.133334c12.8 0 21.333333-8.533333 21.333333-21.333333V896c0-38.4-34.133333-72.533333-72.533333-72.533333H256c-21.333333 0-34.133333-17.066667-34.133333-34.133334V665.6c-4.266667-25.6-25.6-46.933333-51.2-51.2l-46.933334-12.8 81.066667-243.2c4.266667-12.8 8.533333-21.333333 8.533333-29.866667 8.533333-29.866667 25.6-68.266667 55.466667-102.4 8.533333-8.533333 8.533333-25.6-4.266667-29.866666l-25.6-21.333334c-8.533333-8.533333-21.333333-8.533333-29.866666 0z"
          fill="#207ECD" p-id="50808"></path>
    <path d="M512 307.2c98.133333 0 179.2 81.066667 179.2 179.2s-81.066667 179.2-179.2 179.2c-93.866667 0-174.933333-72.533333-179.2-166.4v-25.6c4.266667-93.866667 85.333333-166.4 179.2-166.4z m0 81.066667c-51.2 0-89.6 38.4-93.866667 85.333333v17.066667c4.266667 46.933333 46.933333 85.333333 93.866667 85.333333 51.2 0 93.866667-42.666667 93.866667-93.866667 0-51.2-42.666667-93.866667-93.866667-93.866666z"
          fill="#DE6316" p-id="50809"></path>
    <path d="M605.866667 51.2C512 29.866667 409.6 42.666667 320 85.333333c-12.8 4.266667-17.066667 17.066667-8.533333 29.866667l12.8 29.866667c4.266667 12.8 17.066667 17.066667 29.866666 8.533333 72.533333-34.133333 157.866667-42.666667 238.933334-25.6 59.733333 12.8 115.2 34.133333 162.133333 72.533333 8.533333 8.533333 25.6 4.266667 29.866667-4.266666l21.333333-25.6c8.533333-8.533333 4.266667-25.6-4.266667-29.866667-55.466667-46.933333-123.733333-76.8-196.266666-89.6z"
          fill="#207ECD" p-id="50810"></path>
</svg>